<?xml version="1.0" encoding="utf-8"?>
<!-- Svg Vector Icons : http://www.onlinewebfonts.com/icon -->
<!DOCTYPE svg PUBLIC "-//W3C//DTD SVG 1.1//EN" "http://www.w3.org/Graphics/SVG/1.1/DTD/svg11.dtd">
<svg version="1.1" xmlns="http://www.w3.org/2000/svg" xmlns:xlink="http://www.w3.org/1999/xlink" x="0px" y="0px" viewBox="0 0 256 256" enable-background="new 0 0 256 256" xml:space="preserve">
<metadata> Svg Vector Icons : http://www.onlinewebfonts.com/icon </metadata>
<g><g><g><path fill="#ffd000" d="M117.8,10.3C88.3,13.4,63.1,25.4,43,46.2C21.8,68.3,10,97.4,10,128c0,13.1,1.8,24.5,6.1,37.4c14.7,44.4,54.6,75.9,101.2,80.2c7.7,0.7,20.8,0.4,27.9-0.7c51.6-7.9,91.7-47.9,99.6-99.6c1.1-7.1,1.5-20.2,0.7-27.9c-4.3-46.7-35.9-86.5-80.2-101.2c-9-3-15.1-4.3-24.1-5.4C135.8,10.1,122.5,9.8,117.8,10.3z M142.4,23.4c42.4,5.6,77.7,37.3,88.2,79c4,15.9,4.1,33.5,0.4,49.6c-3.2,13.8-10.4,29-19.3,40.4c-3.5,4.6-9.6,11.3-10.2,11.3c-0.2,0-0.6-1.6-0.9-3.6c-3-19-16.8-36.8-36-46.6c-7.7-3.9-15.3-6.4-24.2-7.9c-9.2-1.5-15.2-1.5-24.5,0c-24.5,4.1-44.5,17.8-54.5,37.5c-2.6,5.1-4.9,12-5.7,17c-0.3,2-0.7,3.6-0.9,3.6s-1.7-1.5-3.4-3.3c-15.2-16.2-24.9-36.4-28-58.2c-1.1-7.6-1.1-21.3,0-28.7C26.8,90.2,36.9,70,53.4,53.4C77.1,29.8,109.1,18.9,142.4,23.4z M141.7,158.6c26.2,5.5,45.4,25,46.9,47.4l0.3,4.4l-3.4,2.7c-10.3,8.3-22.6,14.5-35.2,17.7c-14,3.5-30.6,3.5-44.6,0c-12.7-3.2-25.1-9.5-35.2-17.7l-3.4-2.7l0.3-4.4c1.6-24.2,23.3-44.3,52.3-48.3C124.7,157,136.4,157.4,141.7,158.6z"/><path fill="#ffd000" d="M120.3,60.2c-12.1,2.4-21.6,9.8-26.8,20.8c-2.8,6-3.5,9.6-3.5,17.3c0,5.7,0.2,7.1,1.3,10.9c3.4,11,10,18.9,20,23.6c19.2,9,42.3,1.3,51.1-17.2c2.8-5.8,3.7-10.3,3.7-17.5c0-9.3-2.1-16.2-7.1-23.3C150.6,63.2,134.9,57.3,120.3,60.2z M135.4,72.9c7.2,2.1,12.7,6.6,15.6,12.8c2,4.4,2.8,7.6,2.8,12.5c0,14.9-10.9,25.8-25.7,25.8c-11.2,0-20.7-6.6-24.3-16.8c-1.3-3.7-1.7-10.8-1-14.9c1.8-9.5,8.8-17.1,18.2-19.6C124.5,71.9,132.1,71.9,135.4,72.9z"/></g></g></g>
</svg>