<?xml version="1.0" standalone="no"?>
<!DOCTYPE svg PUBLIC "-//W3C//DTD SVG 20010904//EN"
 "http://www.w3.org/TR/2001/REC-SVG-20010904/DTD/svg10.dtd">
<svg version="1.0" xmlns="http://www.w3.org/2000/svg"
 width="64.000000pt" height="40.000000pt" viewBox="0 0 64.000000 40.000000"
 preserveAspectRatio="xMidYMid meet">

<g transform="translate(0.000000,40.000000) scale(0.100000,-0.100000)"
fill="#000000" stroke="none">
<path d="M223 195 c0 -27 2 -38 4 -22 2 15 2 37 0 50 -2 12 -4 0 -4 -28z"/>
<path d="M331 193 c1 -26 3 -40 6 -31 2 9 14 18 26 20 16 2 22 10 22 28 0 20
-6 26 -27 28 -27 3 -28 2 -27 -45z m47 20 c-5 -26 -38 -29 -38 -4 0 15 6 21
21 21 14 0 19 -5 17 -17z"/>
<path d="M550 196 c0 -37 3 -46 17 -46 13 0 14 3 5 12 -15 15 -16 45 -1 50 7
2 5 9 -5 17 -14 12 -16 9 -16 -33z"/>
<path d="M252 183 c1 -37 1 -37 5 -5 6 42 33 44 33 2 0 -16 5 -30 11 -30 6 0
9 14 7 33 -2 27 -8 33 -30 35 -26 3 -28 1 -26 -35z"/>
<path d="M405 199 c-10 -30 18 -58 43 -43 9 6 17 22 17 35 0 34 -50 41 -60 8z
m52 -4 c5 -16 -14 -38 -26 -31 -18 12 -13 48 6 44 9 -2 18 -7 20 -13z"/>
<path d="M487 213 c-12 -12 -7 -22 13 -28 11 -3 20 -11 20 -16 0 -6 -10 -7
-22 -4 -18 6 -20 4 -12 -5 16 -16 48 -9 52 11 2 11 -7 19 -25 24 l-28 8 25 7
c22 7 22 8 4 9 -11 1 -24 -2 -27 -6z"/>
</g>
</svg>
